<svg width="540" height="160" xmlns="http://www.w3.org/2000/svg"><g stroke="null"><path d="M519.519 159.5H19.98C8.791 159.5 0 150.727 0 139.562V19.937C0 8.772 8.792 0 19.981 0H519.52c11.19 0 19.981 8.772 19.981 19.937v119.625c0 11.165-8.792 19.938-19.981 19.938z"/><path class="st0" d="M519.519 3.19c9.191 0 16.784 7.576 16.784 16.747v119.626c0 9.17-7.593 16.747-16.784 16.747H19.98c-9.191 0-16.784-7.576-16.784-16.747V19.938c0-9.172 7.593-16.748 16.784-16.748h499.54m0-3.19H19.98C8.791 0 0 9.171 0 19.938v119.624C0 150.727 8.792 159.5 19.981 159.5H519.52c11.19 0 19.981-8.773 19.981-19.938V19.938C539.5 9.171 530.708 0 519.519 0z" fill="#a6a6a6"/><path stroke="#fff" class="st1" d="M189.424 40.672c0 3.19-.799 5.982-2.797 7.976-2.398 2.392-5.195 3.588-8.792 3.588-3.596 0-6.394-1.196-8.792-3.588-2.397-2.393-3.596-5.184-3.596-8.773 0-3.589 1.199-6.38 3.596-8.773 2.398-2.392 5.196-3.588 8.792-3.588 1.599 0 3.197.398 4.796 1.196 1.598.797 2.797 1.595 3.596 2.791l-1.998 1.994c-1.598-1.994-3.596-2.791-6.394-2.791-2.398 0-4.795.797-6.394 2.791-1.998 1.595-2.797 3.987-2.797 6.779s.799 5.183 2.797 6.778c1.998 1.596 3.996 2.792 6.394 2.792 2.798 0 4.796-.798 6.794-2.792 1.199-1.196 1.998-2.79 1.998-4.784h-8.792v-3.19h11.59v1.594zm18.383-9.968h-10.79v7.576h9.991v2.791h-9.99v7.577h10.79v3.19H193.82V27.912h13.987v2.792zm13.188 21.133h-3.197V30.704h-6.794v-2.792h16.785v2.792h-6.794v21.133zm18.383 0V27.912h3.197v23.925h-3.197zm16.785 0h-3.197V30.704h-6.794v-2.792h16.385v2.792h-6.794v21.133h.4zm37.964-3.19c-2.397 2.393-5.195 3.59-8.791 3.59-3.597 0-6.395-1.197-8.792-3.59-2.398-2.392-3.597-5.183-3.597-8.772s1.199-6.38 3.597-8.773c2.397-2.392 5.195-3.588 8.792-3.588 3.596 0 6.394 1.196 8.791 3.588 2.398 2.393 3.597 5.184 3.597 8.773 0 3.589-1.199 6.38-3.597 8.773zm-15.186-1.993c1.599 1.595 3.997 2.791 6.395 2.791 2.397 0 4.795-.797 6.394-2.791 1.598-1.595 2.797-3.988 2.797-6.779s-.8-5.184-2.797-6.779c-1.599-1.595-3.997-2.791-6.394-2.791-2.398 0-4.796.797-6.395 2.791a9.61 9.61 0 00-2.797 6.779c0 2.791.8 5.184 2.797 6.779zm23.179 5.183V27.914h3.597l11.589 18.74v-18.74h3.197v23.925h-3.197l-12.389-19.54v19.54h-2.797z" stroke-width=".2" stroke-miterlimit="10" fill="#fff"/><path class="st2" d="M272.148 86.927c-9.591 0-17.184 7.178-17.184 17.147 0 9.57 7.593 17.146 17.184 17.146s17.184-7.178 17.184-17.146c0-10.368-7.593-17.147-17.184-17.147zm0 27.115c-5.195 0-9.591-4.386-9.591-10.367s4.396-10.368 9.59-10.368c5.196 0 9.592 3.988 9.592 10.368 0 5.981-4.396 10.367-9.591 10.367zm-37.166-27.115c-9.59 0-17.184 7.178-17.184 17.147 0 9.57 7.593 17.146 17.184 17.146s17.184-7.178 17.184-17.146c0-10.368-7.593-17.147-17.184-17.147zm0 27.115c-5.195 0-9.59-4.386-9.59-10.367s4.395-10.368 9.59-10.368 9.591 3.988 9.591 10.368c0 5.981-4.396 10.367-9.59 10.367zm-44.359-21.93v7.177h17.184c-.4 3.987-1.998 7.177-3.996 9.171-2.398 2.392-6.394 5.184-13.188 5.184-10.79 0-18.782-8.374-18.782-19.14s8.392-19.14 18.782-19.14c5.595 0 9.991 2.392 13.188 5.183l5.195-5.183c-4.396-3.988-9.99-7.178-17.983-7.178-14.387 0-26.775 11.963-26.775 26.318 0 14.355 12.388 26.317 26.775 26.317 7.993 0 13.587-2.392 18.383-7.576 4.795-4.785 6.394-11.564 6.394-16.748 0-1.595 0-3.19-.4-4.386h-24.777zm181.432 5.582c-1.598-3.988-5.595-10.767-14.386-10.767s-15.986 6.78-15.986 17.147c0 9.57 7.194 17.146 16.785 17.146 7.593 0 12.388-4.785 13.987-7.576l-5.595-3.988c-1.998 2.791-4.396 4.785-8.392 4.785s-6.394-1.595-8.392-5.184l22.778-9.57-.799-1.993zm-23.178 5.582c0-6.38 5.195-9.969 8.792-9.969 2.797 0 5.594 1.595 6.394 3.59l-15.186 6.38zm-18.783 16.349h7.593V69.781h-7.593v49.844zm-11.989-29.109c-1.998-1.994-5.195-3.987-9.191-3.987-8.393 0-16.385 7.576-16.385 17.146s7.593 16.747 16.385 16.747c3.996 0 7.193-1.993 8.792-3.987h.4v2.392c0 6.38-3.597 9.97-9.192 9.97-4.396 0-7.593-3.19-8.393-5.982l-6.394 2.791c1.999 4.386 6.794 9.969 15.186 9.969 8.792 0 15.986-5.184 15.986-17.545V87.725h-7.194v2.791zm-8.792 23.526c-5.195 0-9.59-4.386-9.59-10.367s4.395-10.368 9.59-10.368c5.196 0 9.192 4.387 9.192 10.368s-3.996 10.367-9.192 10.367zm97.51-44.26H388.84v49.843h7.593v-18.741h10.39c8.392 0 16.385-5.982 16.385-15.552s-7.993-15.55-16.385-15.55zm.4 23.924h-10.79V76.56h10.79c5.594 0 8.791 4.785 8.791 8.374-.4 4.386-3.596 8.772-8.791 8.772zm45.957-7.177c-5.595 0-11.19 2.392-13.188 7.576l6.794 2.791c1.598-2.791 3.996-3.589 6.794-3.589 3.996 0 7.593 2.393 7.992 6.38v.4c-1.199-.798-4.396-1.995-7.593-1.995-7.193 0-14.386 3.988-14.386 11.165 0 6.78 5.994 11.165 12.388 11.165 5.195 0 7.593-2.392 9.591-4.785h.4v3.988h7.193v-19.14c-.8-8.773-7.593-13.956-15.985-13.956zm-.8 27.513c-2.397 0-5.994-1.196-5.994-4.386 0-3.987 4.396-5.184 7.993-5.184 3.197 0 4.795.798 6.794 1.595-.8 4.785-4.796 7.975-8.792 7.975zm41.962-26.317l-8.392 21.532h-.4l-8.792-21.532h-7.992l13.187 30.305-7.593 16.747h7.593l20.381-47.052h-7.992zm-67.138 31.9h7.593V69.781h-7.593v49.844z" fill="#fff"/><path class="st3" d="M41.561 29.906c-1.198 1.197-1.598 3.19-1.598 5.583v88.124c0 2.392.8 4.386 1.998 5.582l.4.399 49.554-49.445v-.798L41.56 29.906z" fill="url(#svg_4)"/><path class="st4" d="M107.9 96.896L91.515 80.547v-1.196L107.9 63.002l.4.4 19.581 11.164c5.595 3.19 5.595 8.374 0 11.564L107.9 96.896z" fill="url(#svg_3)"/><path class="st5" d="M108.3 96.498L91.515 79.75l-49.954 49.844c1.999 1.994 4.796 1.994 8.393.399L108.3 96.498" fill="url(#svg_2)"/><path class="st6" d="M108.3 63.002L49.954 29.907c-3.597-1.993-6.394-1.595-8.393.399L91.515 79.75 108.3 63.003z" fill="url(#svg_1)"/><path class="st7" d="M107.9 96.099l-57.946 32.697c-3.197 1.994-5.995 1.595-7.993 0l-.4.399.4.399c1.998 1.595 4.796 1.994 7.993 0L107.9 96.099z" opacity=".2"/><path class="st8" d="M41.561 128.796c-1.198-1.196-1.598-3.19-1.598-5.582v.398c0 2.393.8 4.387 1.998 5.583v-.399h-.4zm86.32-43.862L107.9 96.099l.4.398 19.581-11.164c2.798-1.595 3.997-3.59 3.997-5.583 0 1.994-1.599 3.589-3.997 5.184z" opacity=".12"/><path class="st9" d="M49.954 30.305l77.927 44.261c2.398 1.595 3.997 3.19 3.997 5.184 0-1.994-1.2-3.987-3.997-5.582L49.954 29.906c-5.595-3.19-9.991-.797-9.991 5.583v.399c0-5.982 4.396-8.773 9.99-5.583z" opacity=".25" fill="#fff"/></g><defs><linearGradient id="svg_4" gradientUnits="userSpaceOnUse" x1="21.8" y1="33.29" x2="5.017" y2="16.508" gradientTransform="matrix(3.9963 0 0 -3.9875 0 167.475)"><stop offset="0" stop-color="#00a0ff"/><stop offset=".007" stop-color="#00a1ff"/><stop offset=".26" stop-color="#00beff"/><stop offset=".512" stop-color="#00d2ff"/><stop offset=".76" stop-color="#00dfff"/><stop offset="1" stop-color="#00e3ff"/></linearGradient><linearGradient id="svg_3" gradientUnits="userSpaceOnUse" x1="33.834" y1="21.999" x2="9.637" y2="21.999" gradientTransform="matrix(3.9963 0 0 -3.9875 0 167.475)"><stop offset="0" stop-color="#ffe000"/><stop offset=".409" stop-color="#ffbd00"/><stop offset=".775" stop-color="orange"/><stop offset="1" stop-color="#ff9c00"/></linearGradient><linearGradient id="svg_2" gradientUnits="userSpaceOnUse" x1="24.827" y1="19.704" x2="2.069" y2="-3.054" gradientTransform="matrix(3.9963 0 0 -3.9875 0 167.475)"><stop offset="0" stop-color="#ff3a44"/><stop offset="1" stop-color="#c31162"/></linearGradient><linearGradient id="svg_1" gradientUnits="userSpaceOnUse" x1="7.297" y1="41.824" x2="17.46" y2="31.661" gradientTransform="matrix(3.9963 0 0 -3.9875 0 167.475)"><stop offset="0" stop-color="#32a071"/><stop offset=".069" stop-color="#2da771"/><stop offset=".476" stop-color="#15cf74"/><stop offset=".801" stop-color="#06e775"/><stop offset="1" stop-color="#00f076"/></linearGradient></defs></svg>