<svg width="800" height="800" viewBox="0 0 25 25" fill="none" xmlns="http://www.w3.org/2000/svg"><path fill-rule="evenodd" clip-rule="evenodd" d="M9.4 5.4H4v1.2h9.219c-.058.185-.13.396-.216.622-.3.778-.763 1.69-1.427 2.354L10 11.15l-.576-.575a8.785 8.785 0 01-1.462-1.93 6.883 6.883 0 01-.376-.79 2.055 2.055 0 01-.015-.04L7.57 7.81 7 8l-.57.19.001.001.001.003.002.005.007.019.022.061c.02.052.048.125.087.215.078.181.196.434.363.735a9.987 9.987 0 001.663 2.195L9.15 12l-4.57 4.572-.003.003h-.001l.848.85.003-.003 4.61-4.61 2.579 2.149.768-.922-2.495-2.08 1.535-1.535c.836-.835 1.373-1.924 1.699-2.771.159-.414.272-.782.347-1.053H16V5.4h-5.4V4H9.4v1.4zm8.04 4.6l4.113 9.767h-1.302L19.128 17.1h-4.256l-1.123 2.667h-1.302L16.56 10h.88zm-2.063 5.9h3.246L17 12.046 15.377 15.9z" fill="#bebebe"/></svg>