<svg width="540" height="160" xmlns="http://www.w3.org/2000/svg">
 <g id="Layer_1">
  <title>Layer 1</title>
  <g stroke="null">
   <g stroke="null" id="svg_5">
    <title stroke="null">Layer 1</title>
    <g stroke="null">
     <path stroke="null" d="m519.51851,159.49999l-499.53703,0c-11.18963,0 -19.98148,-8.7725 -19.98148,-19.9375l0,-119.625c0,-11.165 8.79185,-19.9375 19.98148,-19.9375l499.53703,0c11.18963,0 19.98148,8.7725 19.98148,19.9375l0,119.625c0,11.165 -8.79185,19.9375 -19.98148,19.9375z"/>
     <path stroke="null" class="st0" d="m519.51851,3.19c9.19148,0 16.78444,7.57625 16.78444,16.7475l0,119.625c0,9.17125 -7.59296,16.7475 -16.78444,16.7475l-499.53703,0c-9.19148,0 -16.78444,-7.57625 -16.78444,-16.7475l0,-119.625c0,-9.17125 7.59296,-16.7475 16.78444,-16.7475l499.53703,0m0,-3.19l-499.53703,0c-11.18963,0 -19.98148,9.17125 -19.98148,19.9375l0,119.625c0,11.165 8.79185,19.9375 19.98148,19.9375l499.53703,0c11.18963,0 19.98148,-8.7725 19.98148,-19.9375l0,-119.625c0,-10.76625 -8.79185,-19.9375 -19.98148,-19.9375z" fill="#a6a6a6"/>
     <path stroke="#ffffff" class="st1" d="m189.42444,40.6725c0,3.19 -0.79926,5.98125 -2.79741,7.975c-2.39778,2.3925 -5.19519,3.58875 -8.79185,3.58875c-3.59667,0 -6.39407,-1.19625 -8.79185,-3.58875c-2.39778,-2.3925 -3.59667,-5.18375 -3.59667,-8.7725c0,-3.58875 1.19889,-6.38 3.59667,-8.7725c2.39778,-2.3925 5.19519,-3.58875 8.79185,-3.58875c1.59852,0 3.19704,0.39875 4.79556,1.19625c1.59852,0.7975 2.79741,1.595 3.59667,2.79125l-1.99815,1.99375c-1.59852,-1.99375 -3.59667,-2.79125 -6.39407,-2.79125c-2.39778,0 -4.79556,0.7975 -6.39407,2.79125c-1.99815,1.595 -2.79741,3.9875 -2.79741,6.77875s0.79926,5.18375 2.79741,6.77875c1.99815,1.595 3.9963,2.79125 6.39407,2.79125c2.79741,0 4.79556,-0.7975 6.7937,-2.79125c1.19889,-1.19625 1.99815,-2.79125 1.99815,-4.785l-8.79185,0l0,-3.19l11.58926,0l0,1.595zm18.38296,-9.96875l-10.79,0l0,7.57625l9.99074,0l0,2.79125l-9.99074,0l0,7.57625l10.79,0l0,3.19l-13.98704,0l0,-23.925l13.98704,0l0,2.79125zm13.18778,21.13375l-3.19704,0l0,-21.13375l-6.7937,0l0,-2.79125l16.78444,0l0,2.79125l-6.7937,0l0,21.13375zm18.38296,0l0,-23.925l3.19704,0l0,23.925l-3.19704,0zm16.78444,0l-3.19704,0l0,-21.13375l-6.7937,0l0,-2.79125l16.38481,0l0,2.79125l-6.7937,0l0,21.13375l0.39963,0zm37.96481,-3.19c-2.39778,2.3925 -5.19519,3.58875 -8.79185,3.58875c-3.59667,0 -6.39407,-1.19625 -8.79185,-3.58875c-2.39778,-2.3925 -3.59667,-5.18375 -3.59667,-8.7725s1.19889,-6.38 3.59667,-8.7725c2.39778,-2.3925 5.19519,-3.58875 8.79185,-3.58875c3.59667,0 6.39407,1.19625 8.79185,3.58875c2.39778,2.3925 3.59667,5.18375 3.59667,8.7725c0,3.58875 -1.19889,6.38 -3.59667,8.7725zm-15.18593,-1.99375c1.59852,1.595 3.9963,2.79125 6.39407,2.79125c2.39778,0 4.79556,-0.7975 6.39407,-2.79125c1.59852,-1.595 2.79741,-3.9875 2.79741,-6.77875s-0.79926,-5.18375 -2.79741,-6.77875c-1.59852,-1.595 -3.9963,-2.79125 -6.39407,-2.79125c-2.39778,0 -4.79556,0.7975 -6.39407,2.79125c-1.59852,1.595 -2.79741,3.9875 -2.79741,6.77875s0.79926,5.18375 2.79741,6.77875zm23.17852,5.18375l0,-23.925l3.59667,0l11.58926,18.74125l0,-18.74125l3.19704,0l0,23.925l-3.19704,0l-12.38852,-19.53875l0,19.53875l-2.79741,0z" stroke-width="0.2" stroke-miterlimit="10" fill="#fff"/>
     <path stroke="null" class="st2" d="m272.14777,86.9275c-9.59111,0 -17.18407,7.1775 -17.18407,17.14625c0,9.57 7.59296,17.14625 17.18407,17.14625s17.18407,-7.1775 17.18407,-17.14625c0,-10.3675 -7.59296,-17.14625 -17.18407,-17.14625zm0,27.115c-5.19519,0 -9.59111,-4.38625 -9.59111,-10.3675s4.39593,-10.3675 9.59111,-10.3675c5.19519,0 9.59111,3.9875 9.59111,10.3675c0,5.98125 -4.39593,10.3675 -9.59111,10.3675zm-37.16555,-27.115c-9.59111,0 -17.18407,7.1775 -17.18407,17.14625c0,9.57 7.59296,17.14625 17.18407,17.14625s17.18407,-7.1775 17.18407,-17.14625c0,-10.3675 -7.59296,-17.14625 -17.18407,-17.14625zm0,27.115c-5.19519,0 -9.59111,-4.38625 -9.59111,-10.3675s4.39593,-10.3675 9.59111,-10.3675c5.19519,0 9.59111,3.9875 9.59111,10.3675c0,5.98125 -4.39593,10.3675 -9.59111,10.3675zm-44.35889,-21.93125l0,7.1775l17.18407,0c-0.39963,3.9875 -1.99815,7.1775 -3.9963,9.17125c-2.39778,2.3925 -6.39407,5.18375 -13.18778,5.18375c-10.79,0 -18.78259,-8.37375 -18.78259,-19.14s8.39222,-19.14 18.78259,-19.14c5.59481,0 9.99074,2.3925 13.18778,5.18375l5.19519,-5.18375c-4.39593,-3.9875 -9.99074,-7.1775 -17.98333,-7.1775c-14.38667,0 -26.77518,11.9625 -26.77518,26.3175c0,14.355 12.38852,26.3175 26.77518,26.3175c7.99259,0 13.58741,-2.3925 18.38296,-7.57625c4.79556,-4.785 6.39407,-11.56375 6.39407,-16.7475c0,-1.595 0,-3.19 -0.39963,-4.38625l-24.77704,0zm181.43185,5.5825c-1.59852,-3.9875 -5.59481,-10.76625 -14.38667,-10.76625s-15.98518,6.77875 -15.98518,17.14625c0,9.57 7.19333,17.14625 16.78444,17.14625c7.59296,0 12.38852,-4.785 13.98704,-7.57625l-5.59481,-3.9875c-1.99815,2.79125 -4.39593,4.785 -8.39222,4.785s-6.39407,-1.595 -8.39222,-5.18375l22.77889,-9.57l-0.79926,-1.99375zm-23.17852,5.5825c0,-6.38 5.19519,-9.96875 8.79185,-9.96875c2.79741,0 5.59481,1.595 6.39407,3.58875l-15.18593,6.38zm-18.78259,16.34875l7.59296,0l0,-49.84375l-7.59296,0l0,49.84375zm-11.98889,-29.10875c-1.99815,-1.99375 -5.19519,-3.9875 -9.19148,-3.9875c-8.39222,0 -16.38481,7.57625 -16.38481,17.14625s7.59296,16.7475 16.38481,16.7475c3.9963,0 7.19333,-1.99375 8.79185,-3.9875l0.39963,0l0,2.3925c0,6.38 -3.59667,9.96875 -9.19148,9.96875c-4.39593,0 -7.59296,-3.19 -8.39222,-5.98125l-6.39407,2.79125c1.99815,4.38625 6.7937,9.96875 15.18593,9.96875c8.79185,0 15.98518,-5.18375 15.98518,-17.545l0,-30.305l-7.19333,0l0,2.79125zm-8.79185,23.52625c-5.19519,0 -9.59111,-4.38625 -9.59111,-10.3675s4.39593,-10.3675 9.59111,-10.3675c5.19519,0 9.19148,4.38625 9.19148,10.3675s-3.9963,10.3675 -9.19148,10.3675zm97.50963,-44.26125l-17.98333,0l0,49.84375l7.59296,0l0,-18.74125l10.39037,0c8.39222,0 16.38481,-5.98125 16.38481,-15.55125s-7.99259,-15.55125 -16.38481,-15.55125zm0.39963,23.925l-10.79,0l0,-17.14625l10.79,0c5.59481,0 8.79185,4.785 8.79185,8.37375c-0.39963,4.38625 -3.59667,8.7725 -8.79185,8.7725zm45.95741,-7.1775c-5.59481,0 -11.18963,2.3925 -13.18778,7.57625l6.7937,2.79125c1.59852,-2.79125 3.9963,-3.58875 6.7937,-3.58875c3.9963,0 7.59296,2.3925 7.99259,6.38l0,0.39875c-1.19889,-0.7975 -4.39593,-1.99375 -7.59296,-1.99375c-7.19333,0 -14.38667,3.9875 -14.38667,11.165c0,6.77875 5.99444,11.165 12.38852,11.165c5.19519,0 7.59296,-2.3925 9.59111,-4.785l0.39963,0l0,3.9875l7.19333,0l0,-19.14c-0.79926,-8.7725 -7.59296,-13.95625 -15.98518,-13.95625zm-0.79926,27.51375c-2.39778,0 -5.99444,-1.19625 -5.99444,-4.38625c0,-3.9875 4.39593,-5.18375 7.99259,-5.18375c3.19704,0 4.79556,0.7975 6.7937,1.595c-0.79926,4.785 -4.79556,7.975 -8.79185,7.975zm41.96111,-26.3175l-8.39222,21.5325l-0.39963,0l-8.79185,-21.5325l-7.99259,0l13.18778,30.305l-7.59296,16.7475l7.59296,0l20.38111,-47.0525l-7.99259,0zm-67.13778,31.9l7.59296,0l0,-49.84375l-7.59296,0l0,49.84375z" fill="#fff"/>
     <g stroke="null">
      <path stroke="null" class="st3" d="m41.56148,29.90625c-1.19889,1.19625 -1.59852,3.19 -1.59852,5.5825l0,88.12375c0,2.3925 0.79926,4.38625 1.99815,5.5825l0.39963,0.39875l49.55407,-49.445l0,-0.7975l-50.35333,-49.445z" fill="url(#svg_4)"/>
      <path stroke="null" class="st4" d="m107.9,96.89625l-16.38481,-16.34875l0,-1.19625l16.38481,-16.34875l0.39963,0.39875l19.58185,11.165c5.59481,3.19 5.59481,8.37375 0,11.56375l-19.98148,10.76625z" fill="url(#svg_3)"/>
      <path stroke="null" class="st5" d="m108.29963,96.4975l-16.78444,-16.7475l-49.9537,49.84375c1.99815,1.99375 4.79556,1.99375 8.39222,0.39875l58.34592,-33.495" fill="url(#svg_2)"/>
      <path stroke="null" class="st6" d="m108.29963,63.0025l-58.34592,-33.09625c-3.59667,-1.99375 -6.39407,-1.595 -8.39222,0.39875l49.9537,49.445l16.78444,-16.7475z" fill="url(#svg_1)"/>
      <path stroke="null" class="st7" d="m107.9,96.09875l-57.9463,32.6975c-3.19704,1.99375 -5.99444,1.595 -7.99259,0l-0.39963,0.39875l0.39963,0.39875c1.99815,1.595 4.79556,1.99375 7.99259,0l57.9463,-33.495z" opacity="0.2" enable-background="new"/>
      <path stroke="null" class="st8" d="m41.56148,128.79625c-1.19889,-1.19625 -1.59852,-3.19 -1.59852,-5.5825l0,0.39875c0,2.3925 0.79926,4.38625 1.99815,5.5825l0,-0.39875l-0.39963,0zm86.32,-43.8625l-19.98148,11.165l0.39963,0.39875l19.58185,-11.165c2.79741,-1.595 3.9963,-3.58875 3.9963,-5.5825c0,1.99375 -1.59852,3.58875 -3.9963,5.18375z" opacity="0.12" enable-background="new"/>
      <path stroke="null" class="st9" d="m49.9537,30.305l77.92778,44.26125c2.39778,1.595 3.9963,3.19 3.9963,5.18375c0,-1.99375 -1.19889,-3.9875 -3.9963,-5.5825l-77.92778,-44.26125c-5.59481,-3.19 -9.99074,-0.7975 -9.99074,5.5825l0,0.39875c0,-5.98125 4.39593,-8.7725 9.99074,-5.5825z" opacity="0.25" enable-background="new" fill="#fff"/>
     </g>
    </g>
   </g>

  </g>
 </g>
 <defs>
  <linearGradient id="svg_4" gradientUnits="userSpaceOnUse" x1="21.8" y1="33.29" x2="5.017" y2="16.508" gradientTransform="matrix(3.9962961673736572,0,0,-3.987499952316284,0,167.47500610351562)">
   <stop offset="0" stop-color="#00a0ff"/>
   <stop offset="0.007" stop-color="#00a1ff"/>
   <stop offset="0.26" stop-color="#00beff"/>
   <stop offset="0.512" stop-color="#00d2ff"/>
   <stop offset="0.76" stop-color="#00dfff"/>
   <stop offset="1" stop-color="#00e3ff"/>
  </linearGradient>
  <linearGradient id="svg_3" gradientUnits="userSpaceOnUse" x1="33.834" y1="21.999" x2="9.637" y2="21.999" gradientTransform="matrix(3.9962961673736572,0,0,-3.987499952316284,0,167.47500610351562)">
   <stop offset="0" stop-color="#ffe000"/>
   <stop offset="0.409" stop-color="#ffbd00"/>
   <stop offset="0.775" stop-color="orange"/>
   <stop offset="1" stop-color="#ff9c00"/>
  </linearGradient>
  <linearGradient id="svg_2" gradientUnits="userSpaceOnUse" x1="24.827" y1="19.704" x2="2.069" y2="-3.054" gradientTransform="matrix(3.9962961673736572,0,0,-3.987499952316284,0,167.47500610351562)">
   <stop offset="0" stop-color="#ff3a44"/>
   <stop offset="1" stop-color="#c31162"/>
  </linearGradient>
  <linearGradient id="svg_1" gradientUnits="userSpaceOnUse" x1="7.297" y1="41.824" x2="17.46" y2="31.661" gradientTransform="matrix(3.9962961673736572,0,0,-3.987499952316284,0,167.47500610351562)">
   <stop offset="0" stop-color="#32a071"/>
   <stop offset="0.069" stop-color="#2da771"/>
   <stop offset="0.476" stop-color="#15cf74"/>
   <stop offset="0.801" stop-color="#06e775"/>
   <stop offset="1" stop-color="#00f076"/>
  </linearGradient>
 </defs>
</svg>