<?xml version="1.0"?>
<svg width="1550" height="415.00000000000006" xmlns="http://www.w3.org/2000/svg" xmlns:svg="http://www.w3.org/2000/svg" clip-rule="evenodd" version="1.1" xml:space="preserve">
 <g class="layer">
  <title>Layer 1</title>
  <g id="Capa_x0020_1">
   <metadata id="CorelCorpID_0Corel-Layer"/>
   <g id="_1563722124128">
    <path class="fil0 str0" d="m194.72,362.39c-2.26,-9.36 2.16,-18.99 7.86,-24.99c8.82,-9.29 12.05,-8.56 30.05,-8.51c13.79,0.04 26.55,-1.84 34.94,4.77c24.96,19.68 10.4,52.91 -26.2,55.86c-24.8,2 -42.98,-11.9 -46.65,-27.13zm346.85,-1.92c-3.01,-18.64 15.96,-34.27 36.95,-36.28c24.94,-2.38 46.06,11.74 48.28,28.68c2.52,19.27 -15.66,34.96 -37.1,36.59c-26.43,2.02 -45.36,-11.83 -48.13,-28.99l0,0zm-49.86,-26.25c-2.09,0.61 -8.67,4.36 -12.3,5.75c-4.19,1.61 -9.43,3.14 -14.48,4.2c-32.96,6.87 -69.77,-2.56 -87.06,-23.31c-11.2,-13.43 -15.9,-32.86 -5.51,-49.67c4.64,-7.52 10.43,-12.4 18.14,-17.61c4.55,-3.08 18.96,-11.87 24.69,-11.83l10.67,73.67c-11.33,6.42 -14.26,9.32 -12.96,22.68c25.32,6.14 57.17,1.48 78.81,-3.88l0,0zm-122.73,-163.43c4.44,-7.29 21.99,-43.39 25.93,-46.62l18.8,17.99c12.73,10.81 8.98,9.34 24.68,14.37l68.61,12.31c10.23,37.65 32.35,85.65 20.77,122.04c-3.08,9.67 -11.22,27.9 -20.51,31.59c-9.97,-10.57 -16.83,-8.18 -35.52,-9.46c-4.13,-20.91 -7,-47.69 -7,-69.47c0,-41.17 0.15,-39.4 -44.6,-49.97c-14.73,-3.48 -70.77,-16.57 -80.94,-20.62l29.78,-2.16l0,0zm-215.32,-26.9c0.22,-7.48 6.45,-20.71 8.97,-28.39l59.22,8.71c-0.64,6 -20.29,62.18 -22.92,65.61c-15.19,0.83 -43.53,-7.91 -57.15,-11.77c-0.24,-3.48 5.26,-19.55 7.22,-22.26c25.38,-1.44 60.91,5.16 46.67,-11.63l-42.01,-0.27zm74.02,-7.61c5.81,-16.81 1.85,-11.54 21.56,-17.98c9.71,-3.17 20.98,-7.21 30.7,-9.57c-0.29,5.46 -15.27,45.03 -18.29,53.66c-1.83,5.21 -1.53,9.52 -6.78,11.87c-7.16,3.21 -40.27,15.45 -45.49,15.41l18.3,-53.39l0,0zm-48.86,-26.96c7.45,-1.84 34.28,-9.75 41.3,-9.58c5.78,0.14 42.03,4.47 45.9,5.78c-4.91,2.46 -34.43,12.34 -40.12,11.88c-9.32,-0.77 -41.9,-5.1 -47.08,-8.08zm-42.77,75.25l38.29,9.77l3.29,12.46c-10.63,0.4 -21.7,0.18 -32.38,0.17c-12.12,-0.02 -21.35,-2.13 -19.76,8.67c3.24,4.57 46.83,2.61 58.53,2.69c13.95,0.09 8.78,5.1 24.84,5.14c9.99,0.02 20.01,-0.05 30.01,-0.05c20.73,0 41.81,-0.3 62.48,-0.02l47.99,10.09c-12.6,-0.87 -106.16,-0.35 -114.22,1.53l-8.14,3.21c4.81,3.69 9.48,1.07 15.27,2.09c3.11,0.55 6.85,4.29 7.17,6.28c1.54,9.35 -11.17,8.84 -20.53,8.79c-17.12,-0.08 -47.93,-4.08 -50.6,9.24c7.78,3.77 13.03,-2.75 15.62,5.44c0.81,11.91 -2.82,9.14 -33.53,9.29c-7.54,6.97 -22.82,37.05 -23.77,49.49l27.24,0.21c-2.3,11.39 -18.35,31.56 4.04,60.02c2.88,3.65 12.66,11.72 13.56,14.19l-28.43,0.29c-8.36,8.52 -2.05,11.48 10.92,11.4c11.66,-0.07 23.33,0.06 35,-0.01c16.3,-0.08 66.55,16.72 102.7,-20.65c12.04,-12.44 15.66,-21.73 16.37,-41.34c5.14,2.2 7.84,7.85 11.23,11.85c27.1,1.52 98.13,0.1 133.08,0.11l33.03,-0.42c16.21,-2.26 2.97,0.74 17.37,21.47c3.67,5.29 14.87,14.88 15.89,17.33c-11.25,0.14 -35.78,-1.08 -44.27,1.01c-8.69,13.23 10.3,10.64 24.16,10.64c13.95,0.01 28.66,-0.35 42.51,-0.01c11.09,0.27 16.05,4.48 37.43,3.95c33.26,-0.82 61.21,-18.17 72.44,-42.01c12.85,-27.29 -6.49,-49.55 -7.17,-53.28l20.54,-0.28c-8.77,-15.57 -48.24,-44.4 -76.13,-46.37l-6.73,17.93l-13.5,-0.07c1.27,-9.03 14.3,-18.39 7.92,-28.17l-49.51,-81.04l-6.2,-7.57c-1.92,-2.91 -2.87,-4.37 -4.57,-7.02c-3.37,-5.25 -8.16,-9.12 -7.62,-14.24c6.6,-0.29 4.52,0.16 7.44,4.79c4.88,7.74 15.06,13.51 27.94,12.89l0.04,-47.89c-20.39,-1.19 -26.31,11.66 -31.33,17.86l-15.37,-0.27c-5.65,-1.39 -0.9,0.07 -3.34,-1.59c-6.24,0.48 -42.99,-8.81 -54.7,-11.19c-9.51,-1.94 -9.36,-1.47 -13.53,-7.79l-31.95,-47.77c4.2,-2.26 12.66,-2.24 23.2,-10.39c6.32,-4.89 10.8,-11.24 11.73,-20.67l13.1,-1.03c3.65,-5.25 -1.21,-6.13 -4.85,-8.16c-1.01,-14.63 -5.65,-23.13 -17.78,-30.58c-74.76,-22.63 -75.11,47.57 -70.38,54.2c-30.46,16.47 -56.15,59.85 -64.97,89.93c-4.45,15.19 -3.76,24.8 -4.44,40.69l-54.68,0.17c6.91,-4.46 19.6,-7.48 27.85,-11.15c6.18,-2.76 8.82,-15.06 11.64,-23.67c20.67,-63.19 32.02,-53.3 -30.96,-60.27c-26.97,-2.98 -21.73,-3.31 -45.95,2.96c-7.65,1.99 -38.6,8.86 -41.3,11.59c-3.17,3.19 -9.15,28 -12.56,34.17c-9.96,1.03 -51.15,0.4 -66.17,0.35c-10.43,-0.03 -11.64,-0.97 -18.39,2.85c-2.16,11.57 9.04,8.8 33.38,8.81c15.19,0 30.92,-0.32 46.05,0.05c0.14,2.96 -3.21,13.79 -4.86,16.49c-12.35,1.66 -83.76,0.51 -106.1,0.5c-8.9,-0.01 -29.33,-3.04 -26.38,7.47c1.87,6.67 21.6,4.12 30.12,4.13c26.47,0.02 86.08,-1.07 105.64,0.32l0,0z" fill="#e8505b" id="svg_1"/>
    <path class="fil1" d="m164.49,231.86l-116.36,0.73c-15.9,0.07 -32.86,-1.07 -35.47,5.42c-3.57,8.83 17.07,7.7 33.03,7.54c31.99,-0.32 64.11,-0.41 96.11,-0.61c12.79,-0.07 36.23,1.5 43.32,-2.76c11.87,-7.13 -5.26,-10.41 -20.63,-10.32l0,0l0,0z" fill="#e8505b" id="svg_3"/>
    <polygon class="fil1" fill="#e8505b" id="svg_9" points="219.66397094726562,74.08692932128906 152.93545532226562,94.13380432128906 129.66885375976562,181.29983520507812 207.47451782226562,206.30667114257812 275.4276428222656,177.705078125 301.1981506347656,85.80274963378906 "/>
    <path class="fil2" d="m752.4,28.18l59.48,0c11.7,0 21.2,1.77 28.41,5.26c7.2,3.53 13.17,8.56 17.91,15.12c4.7,6.6 8.11,14.22 10.22,22.95c2.14,8.72 3.2,17.95 3.2,27.7c0,15.29 -1.57,27.15 -4.74,35.57c-3.13,8.43 -7.51,15.49 -13.11,21.18c-5.61,5.69 -11.61,9.49 -18.04,11.39c-8.77,2.6 -16.73,3.89 -23.85,3.89l-59.48,0l0,-71.53l0,-35.76l0,-35.77zm39.98,32.37l0,78.13l9.83,0c8.38,0 14.35,-1.04 17.91,-3.07c3.52,-2.06 6.3,-5.63 8.32,-10.72c2.02,-5.13 3.01,-13.39 3.01,-24.84c0,-15.15 -2.23,-25.51 -6.72,-31.11c-4.49,-5.59 -11.94,-8.39 -22.34,-8.39l-10.01,0zm202.04,68.74l-72.18,0c0.66,6.36 2.2,11.12 4.7,14.25c3.47,4.49 8.02,6.73 13.63,6.73c3.56,0 6.94,-0.97 10.1,-2.9c1.96,-1.23 4.07,-3.4 6.3,-6.5l35.46,3.6c-5.42,10.39 -11.97,17.88 -19.63,22.38c-7.65,4.53 -18.66,6.79 -32.98,6.79c-12.45,0 -22.22,-1.93 -29.37,-5.83c-7.11,-3.86 -13.02,-10.02 -17.73,-18.44c-4.67,-8.46 -7.02,-18.39 -7.02,-29.77c0,-16.22 4.7,-29.38 14.11,-39.4c9.37,-10.02 22.37,-15.05 38.92,-15.05c13.45,0 24.03,2.26 31.81,6.76c7.78,4.49 13.72,10.99 17.79,19.55c4.07,8.52 6.09,19.64 6.09,33.33l0,4.5l0,0zm-36.54,-18.99c-0.69,-7.72 -2.59,-13.25 -5.64,-16.58c-3.04,-3.33 -7.02,-5 -12,-5c-5.73,0 -10.31,2.54 -13.75,7.56c-2.17,3.13 -3.56,7.8 -4.16,14.02l35.55,0l0,0zm54.27,-82.12l36,0l0,143.06l-36,0l0,-143.06zm60.24,39.37l36.01,0l0,103.69l-36.01,0l0,-103.69zm48.31,0l37.42,0l18.21,65.7l18.81,-65.7l36.28,0l-39.8,103.69l-31.91,0l-39.01,-103.69zm220.71,61.74l-72.18,0c0.66,6.36 2.2,11.12 4.7,14.25c3.47,4.49 8.02,6.73 13.63,6.73c3.56,0 6.93,-0.97 10.1,-2.9c1.96,-1.23 4.07,-3.4 6.3,-6.5l35.46,3.6c-5.43,10.39 -11.97,17.88 -19.63,22.38c-7.66,4.53 -18.66,6.79 -32.98,6.79c-12.46,0 -22.23,-1.93 -29.37,-5.83c-7.12,-3.86 -13.03,-10.02 -17.73,-18.44c-4.68,-8.46 -7.03,-18.39 -7.03,-29.77c0,-16.22 4.71,-29.38 14.11,-39.4c9.38,-10.02 22.38,-15.05 38.93,-15.05c13.45,0 24.03,2.26 31.81,6.76c7.78,4.49 13.72,10.99 17.79,19.55c4.07,8.52 6.09,19.64 6.09,33.33l0,4.5l0,0zm-36.54,-18.99c-0.7,-7.72 -2.6,-13.25 -5.64,-16.58c-3.05,-3.33 -7.03,-5 -12,-5c-5.73,0 -10.31,2.54 -13.75,7.56c-2.17,3.13 -3.56,7.8 -4.16,14.02l35.55,0l0,0zm53.36,-42.75l33.71,0l0,16.91c3.26,-7.36 6.61,-12.42 10.04,-15.18c3.47,-2.77 7.72,-4.13 12.79,-4.13c5.34,0 11.15,1.83 17.46,5.49l-11.16,28.21c-4.25,-1.97 -7.63,-2.93 -10.1,-2.93c-4.7,0 -8.38,2.16 -10.98,6.46c-3.7,6.06 -5.57,17.41 -5.57,34.03l0,34.83l-36.19,0l0,-103.69l0,0zm80.15,0l37.93,0l19.33,69.03l17.84,-69.03l35.43,0l-37.14,110.85c-4.23,12.59 -8.57,21.08 -12.97,25.48c-6.24,6.23 -15.74,9.32 -28.52,9.32c-5.19,0 -13.18,-0.79 -24,-2.33l-2.84,-27.74c5.19,1.8 10.95,2.7 17.31,2.7c4.25,0 7.69,-1.06 10.31,-3.2c2.62,-2.09 4.83,-5.89 6.66,-11.35l-39.34,-103.73l0,0z" fill="#455a64" id="svg_10" transform="matrix(1 0 0 1 0 0)"/>
    <path class="fil2" d="m829.01,330.76l-48.3,0l-6.94,23.43l-43.51,0l51.92,-142.19l46.67,0l51.7,142.19l-44.64,0l-6.9,-23.43l0,0zm-9.03,-30.78l-15.06,-51.11l-15.13,51.11l30.19,0zm75.02,93.34l0,-142.2l35.9,0l0,15.2c4.95,-6.43 9.51,-10.76 13.65,-13.01c5.56,-3.05 11.76,-4.57 18.53,-4.57c13.36,0 23.67,5.26 30.99,15.82c7.29,10.56 10.95,23.63 10.95,39.16c0,17.18 -3.98,30.28 -11.94,39.32c-7.97,9.04 -18.02,13.54 -30.19,13.54c-5.91,0 -11.27,-1.03 -16.12,-3.08c-4.88,-2.09 -9.22,-5.13 -13.04,-9.2l0,49.02l-38.73,0l0,0zm38.44,-90.33c0,8.21 1.67,14.27 4.98,18.24c3.31,3.97 7.51,5.96 12.59,5.96c4.43,0 8.15,-1.89 11.17,-5.7c2.99,-3.8 4.5,-10.26 4.5,-19.36c0,-8.41 -1.57,-14.56 -4.69,-18.5c-3.15,-3.94 -6.94,-5.9 -11.46,-5.9c-4.88,0 -8.93,1.99 -12.21,5.96c-3.24,3.97 -4.88,10.4 -4.88,19.3l0,0zm90.08,90.33l0,-142.2l35.91,0l0,15.2c4.94,-6.43 9.5,-10.76 13.64,-13.01c5.56,-3.05 11.76,-4.57 18.53,-4.57c13.36,0 23.67,5.26 30.99,15.82c7.29,10.56 10.96,23.63 10.96,39.16c0,17.18 -3.99,30.28 -11.95,39.32c-7.97,9.04 -18.02,13.54 -30.19,13.54c-5.91,0 -11.27,-1.03 -16.12,-3.08c-4.88,-2.09 -9.22,-5.13 -13.04,-9.2l0,49.02l-38.73,0l0,0zm38.44,-90.33c0,8.21 1.67,14.27 4.98,18.24c3.31,3.97 7.52,5.96 12.59,5.96c4.43,0 8.16,-1.89 11.18,-5.7c2.98,-3.8 4.49,-10.26 4.49,-19.36c0,-8.41 -1.57,-14.56 -4.69,-18.5c-3.15,-3.94 -6.93,-5.9 -11.46,-5.9c-4.88,0 -8.93,1.99 -12.21,5.96c-3.24,3.97 -4.88,10.4 -4.88,19.3l0,0z" fill="#455a64" id="svg_11"/>
    <ellipse cx="1090.38" cy="43.89" fill="#455a64" id="svg_12" rx="20.47" ry="15.64"/>
    <path class="fil1" d="m192.52,281.63l-116.35,0.73c-15.9,0.06 -32.86,-1.07 -35.48,5.41c-3.56,8.83 17.07,7.71 33.04,7.55c31.99,-0.32 64.1,-0.42 96.11,-0.61c12.78,-0.08 36.22,1.5 43.32,-2.76c11.87,-7.13 -5.27,-10.42 -20.64,-10.32l0,0z" fill="#e8505b" id="svg_15"/>
    <path class="fil1" d="m244.58,312.56l-116.35,0.74c-15.9,0.06 -32.86,-1.08 -35.47,5.41c-3.57,8.83 17.07,7.71 33.03,7.55c31.99,-0.33 64.11,-0.42 96.11,-0.61c12.79,-0.08 36.23,1.5 43.32,-2.76c11.87,-7.14 -5.26,-10.42 -20.64,-10.33l0,0z" fill="#e8505b" id="svg_16"/>
    <path class="fil1" d="m211.51,73.09l-70.66,0.45c-9.66,0.02 -19.96,-1.15 -21.53,5.33c-2.14,8.82 10.39,7.75 20.08,7.62c19.43,-0.24 38.93,-0.26 58.37,-0.37c7.76,-0.05 22,1.58 26.3,-2.66c7.19,-7.1 -3.22,-10.43 -12.56,-10.37l0,0z" fill="#e8505b" id="svg_17"/>
    <path class="fil1" d="m321.24,54.23l-50.46,0.33c-6.89,0.01 -14.25,-1.19 -15.37,5.29c-1.51,8.82 7.44,7.77 14.36,7.66c13.87,-0.21 27.8,-0.19 41.68,-0.27c5.54,-0.04 15.71,1.62 18.77,-2.61c5.13,-7.09 -2.31,-10.44 -8.98,-10.4l0,0z" fill="#e8505b" id="svg_18"/>
    <ellipse cx="236.2" cy="357.4" fill="#e8505b" id="svg_2" rx="28" ry="23"/>
    <ellipse cx="583.6" cy="356.4" fill="#e8505b" id="svg_4" rx="28" ry="23"/>
   </g>
  </g>
 </g>
</svg>